<svg width="76" height="76" xmlns="http://www.w3.org/2000/svg">

 <g>
  <title>background</title>
  <rect fill="none" id="canvas_background" height="402" width="582" y="-1" x="-1"/>
 </g>
 <g>
  <title>Layer 1</title>
  <g id="_x37_7_Essential_Icons_69_">
   <path fill="#ffffff" d="m55.9,45.4c-0.8,0.8 -2,0.8 -2.8,0l-14.7,-14.7l-15.5,15.5c-0.8,0.8 -2,0.8 -2.8,0s-0.8,-2 0,-2.8l16.9,-16.9c0.8,-0.8 2.1,-0.8 2.8,0l16.1,16.1c0.8,0.8 0.8,2 0,2.8zm20.1,-7.4c0,21 -17,38 -38,38s-38,-17 -38,-38s17,-38 38,-38s38,17 38,38zm-4,0c0,-18.8 -15.3,-34 -34,-34c-18.8,0 -34,15.2 -34,34s15.2,34 34,34c18.7,0 34,-15.2 34,-34z" id="Up_Arrow"/>
  </g>
  <g id="svg_1"/>
  <g id="svg_2"/>
  <g id="svg_3"/>
  <g id="svg_4"/>
  <g id="svg_5"/>
  <g id="svg_6"/>
  <g id="svg_7"/>
  <g id="svg_8"/>
  <g id="svg_9"/>
  <g id="svg_10"/>
  <g id="svg_11"/>
  <g id="svg_12"/>
  <g id="svg_13"/>
  <g id="svg_14"/>
  <g id="svg_15"/>
 </g>
</svg>