<svg width="40" height="40" xmlns="http://www.w3.org/2000/svg">
    <defs>
        <filter  id="svg_5_blur" x="-50%" y="-50%" width="200%" height="200%">
            <feGaussianBlur  stdDeviation="0" />
        </filter> 
    </defs>
    <g>
        <title>background</title>
        <rect x="-1" y="-1" width="4.49994" height="4.49994" id="canvas_background" fill="none" />
    </g>
    <g>
        <title>Layer 1</title>
        <g id="svg_7">
            <g id="svg_1" opacity="0.81" filter="url(#svg_5_blur)">
                <path d="m15.3,30.9c-8.5,0 -15.4,-6.9 -15.4,-15.4s6.9,-15.5 15.4,-15.5s15.5,7 15.5,15.5c0,1.2 -0.1,2.4 -0.4,3.6c-0.1,0.5 -0.7,0.9 -1.2,0.7c-0.5,-0.1 -0.9,-0.7 -0.7,-1.2c0.2,-1 0.4,-2 0.4,-3.1c0,-7.4 -6,-13.5 -13.5,-13.5s-13.5,6.1 -13.5,13.5s6,13.5 13.5,13.5c1.1,0 2.1,-0.1 3.2,-0.8c0.5,-0.1 1.1,0.2 1.2,0.7c0.1,0.5 -0.2,1.1 -0.7,1.2c-1.3,0.7 -2.5,0.8 -3.8,0.8z" id="svg_2" fill="#2b2d2d" stroke-width="0" />
            </g>
            <g id="svg_3" opacity="0.81" filter="url(#svg_5_blur)">
                <path d="m36.4,40c-0.9,0 -1.8,-0.4 -2.5,-1l-11,-11c-0.4,-0.4 -0.4,-1 0,-1.4s1,-0.4 1.4,0l11,11c0.6,0.6 1.6,0.6 2.1,0c0.6,-0.6 0.6,-1.6 0,-2.1l-11,-11c-0.4,-0.4 -0.4,-1 0,-1.4s1,-0.4 1.4,0l11,11c1.4,1.4 1.4,3.6 0,5c-0.6,0.5 -1.5,0.9 -2.4,0.9z" id="svg_4" fill="#2b2d2d" stroke-width="0" />
            </g>
            <g id="svg_5" opacity="0.81" filter="url(#svg_5_blur)">
                <path d="m15.3,27c-6.3,0 -11.5,-5.2 -11.5,-11.5s5.2,-11.5 11.5,-11.5s11.5,5.2 11.5,11.5s-5.1,11.5 -11.5,11.5zm0,-21c-5.2,0 -9.5,4.3 -9.5,9.5s4.3,9.5 9.5,9.5s9.5,-4.3 9.5,-9.5s-4.2,-9.5 -9.5,-9.5z" id="svg_6" fill="#2b2d2d" stroke-width="0" />
            </g>
        </g>
    </g>
</svg>